<svg xmlns="http://www.w3.org/2000/svg" viewBox="0 0 720 570" fill="none" aria-hidden="true">
<defs>
 <linearGradient id="floor" x1="135" y1="310" x2="569" y2="530" gradientUnits="userSpaceOnUse"><stop stop-color="#dfccb0"/><stop offset="1" stop-color="#c5ac84"/></linearGradient>
 <linearGradient id="wall" x1="87" y1="190" x2="367" y2="380" gradientUnits="userSpaceOnUse"><stop stop-color="#fcf9ed"/><stop offset="1" stop-color="#e8e4d3"/></linearGradient>
 <linearGradient id="window" x2="1" y2="1"><stop stop-color="#cadeda"/><stop offset="1" stop-color="#e8ede0"/></linearGradient>
 <linearGradient id="couch" x2="0" y2="1"><stop stop-color="#779980"/><stop offset="1" stop-color="#315b46"/></linearGradient>
 <linearGradient id="screen" x2="1" y2="1"><stop stop-color="#5d9180"/><stop offset=".5" stop-color="#96b2a0"/><stop offset="1" stop-color="#e2cf9c"/></linearGradient>
 <radialGradient id="light"><stop stop-color="#ffe3a0" stop-opacity=".9"/><stop offset="1" stop-color="#ffe3a0" stop-opacity="0"/></radialGradient>
 <filter id="roomshadow" x="-20%" y="-20%" width="140%" height="160%"><feGaussianBlur stdDeviation="14"/></filter>
 <pattern id="wood" width="43" height="50" patternUnits="userSpaceOnUse" patternTransform="skewY(27)"><path d="M1 0v50" stroke="#fff5d6" stroke-opacity=".4"/></pattern>
</defs>
<ellipse cx="369" cy="465" rx="276" ry="46" fill="#2d4c36" opacity=".13" filter="url(#roomshadow)"/>
<!-- A cutaway living room, drawn in an architectural perspective. -->
<path d="m75 322 289-152 286 158v77L363 555 75 397Z" fill="#c0b398"/>
<path d="m75 322 289-152 286 158-287 155Z" fill="url(#floor)"/>
<path d="m75 322 289-152 286 158-287 155Z" fill="url(#wood)"/>
<path d="m75 322 289-152v-130L75 192Z" fill="url(#wall)"/>
<path d="m364 40 286 156v172L364 170Z" fill="#dde4d5"/>
<path d="m75 192 289-152 286 116 0 14L364 54 75 207Z" fill="#faf9f0"/>
<!-- Window on the left wall. -->
<path d="m104 208 130-68v108l-130 68Z" fill="#9aae9e"/>
<path d="m111 212 116-61v91l-116 61Z" fill="url(#window)"/>
<path d="m169 181 0 91m-58-15 116-62" stroke="#faf9ee" stroke-width="7"/>
<path d="m104 316 132-69 0 8-132 70Z" fill="#fefbef"/>
<!-- Door, wall panel and round presence sensor. -->
<path d="m562 191 58 32v123l-58-32Z" fill="#b09c7a"/><path d="m568 204 46 26v103l-46-26Z" fill="#c9b796"/><path d="m579 259 9 5v31l-9-5Z" fill="#234333"/><path d="m584 279 10 6" stroke="#dfc281" stroke-width="4"/>
<path d="m509 197 30 16v30l-30-16Z" fill="#294838"/><path d="m513 204 22 12v17l-22-12Z" fill="#b3c3a9"/><ellipse cx="395" cy="117" rx="8" ry="10" fill="#fdf9ee"/><circle cx="395" cy="119" r="3" fill="#86a18b"/>
<!-- Smart TV and cabinet. -->
<path d="m402 148 109 60v80l-109-60Z" fill="#193d2c"/><path d="m409 159 94 51v63l-94-51Z" fill="url(#screen)" class="room-screen"/><path class="room-screen-art" d="m409 206 28-15 27 35 22-1 17 30v18l-94-51Z" fill="#376850" opacity=".7"/>
<path d="m393 260 105 57 36-21-106-59Z" fill="#cebb93"/><path d="m393 260 105 57v41l-105-57Z" fill="#ae986e"/><path d="m498 317 36-21v42l-36 20Z" fill="#8d8867"/><path d="m405 278 78 42m-46-27v22m-10-19v13" stroke="#d9c5a0" stroke-width="2"/>
<!-- Rug, sofa and cushions. -->
<path d="m174 346 160-85 174 95-156 90Z" fill="#f3f0dd"/><path d="m187 347 148-77 159 86-143 80Z" stroke="#d9d8c0" stroke-width="2"/>
<path d="m129 313 155-80 85 45v63l-153 84-87-46Z" fill="#284a37"/><path d="m130 298 154-81 39 22-154 83Z" fill="#98b09a"/><path d="m130 298 39 24v58l-39-21Z" fill="#729377"/><path d="m169 322 154-83v47l-154 82Z" fill="url(#couch)"/><path d="m169 357 154-81 40 23-153 84Z" fill="#8ca78e"/>
<path d="m177 352 62-33 35 19-61 33Z" fill="#a3b89d"/><path d="m244 316 67-35 36 19-67 36Z" fill="#a3b89d"/>
<path d="m193 323 23-12 20 19-24 13Z" fill="#e0cfaa"/><path d="m268 281 24-12 19 18-23 14Z" fill="#d8bc7a"/>
<path d="m149 348 22-12 42 24v35l-23 12-41-23Z" fill="#6b8e70"/><path d="m322 259 20-11 40 22v35l-20 12-40-24Z" fill="#6b8e70"/>
<!-- Coffee table, book, and smart speaker. -->
<path d="M303 370v35m73-41v34m-18-48v32" stroke="#5b5d43" stroke-width="7"/>
<ellipse cx="340" cy="362" rx="61" ry="28" fill="#9b8965"/><ellipse cx="340" cy="356" rx="61" ry="27" fill="#e8d2a8"/>
<path d="m316 353 24-12 26 13-25 13Z" fill="#446e53"/><path d="m316 356 25 14 25-13" stroke="#f4eee0" stroke-width="3"/>
<ellipse cx="366" cy="347" rx="14" ry="8" fill="#244a39"/><path d="M352 346a14 14 0 0 1 28 0v3c-3 11-25 11-28 0Z" fill="#496b51"/><path d="M354 351c5 6 20 6 24 0" stroke="#6fd1b9" stroke-width="2"/>
<!-- Floor lamp and an LED strip behind the TV. -->
<ellipse cx="271" cy="267" rx="18" ry="9" fill="#89835e"/><path d="M271 266V161" stroke="#977b43" stroke-width="5"/><path d="m247 161 13-34h23l14 34c-15 12-35 12-50 0Z" fill="#fbecd0"/>
<ellipse class="room-light" cx="272" cy="249" rx="86" ry="44" fill="url(#light)"/>
<path class="room-led" d="m401 146 111 61v82" stroke="#e6c975" stroke-width="4" stroke-linecap="round"/>
<!-- Indoor plant. -->
<ellipse cx="570" cy="380" rx="31" ry="14" fill="#b9b69b"/><path d="m546 359 8 39c4 10 29 10 33 0l8-39" fill="#e7e4cf"/><ellipse cx="570" cy="359" rx="25" ry="12" fill="#b3b391"/><path d="M570 363v-84m0 50-30-26m30 18 31-37" stroke="#4a7950" stroke-width="4"/>
<path d="M570 309c-29-16-31-42-12-53 16 17 13 37 12 53Z" fill="#416b43"/><path d="M570 334c-36-2-45-25-33-44 24 2 34 21 33 44Z" fill="#64885a"/><path d="M573 322c-4-32 14-51 33-41 7 28-12 43-33 41Z" fill="#799665"/>
</svg>
